<svg width="44" height="44" viewBox="0 0 44 44" fill="none" xmlns="http://www.w3.org/2000/svg">
<circle cx="22" cy="22" r="22" fill="#FF0000"/>
<path d="M20.95 33.9V31.9C18.8667 31.6667 17.079 30.8043 15.587 29.313C14.095 27.8217 13.2327 26.034 13 23.95H11V21.95H13C13.2333 19.8667 14.096 18.079 15.588 16.587C17.08 15.095 18.8673 14.2327 20.95 14V12H22.95V14C25.0333 14.2333 26.821 15.096 28.313 16.588C29.805 18.08 30.6673 19.8673 30.9 21.95H32.9V23.95H30.9C30.6667 26.0333 29.8043 27.821 28.313 29.313C26.8217 30.805 25.034 31.6673 22.95 31.9V33.9H20.95ZM21.95 29.95C23.8833 29.95 25.5333 29.2667 26.9 27.9C28.2667 26.5333 28.95 24.8833 28.95 22.95C28.95 21.0167 28.2667 19.3667 26.9 18C25.5333 16.6333 23.8833 15.95 21.95 15.95C20.0167 15.95 18.3667 16.6333 17 18C15.6333 19.3667 14.95 21.0167 14.95 22.95C14.95 24.8833 15.6333 26.5333 17 27.9C18.3667 29.2667 20.0167 29.95 21.95 29.95ZM21.95 26.95C20.85 26.95 19.9083 26.5583 19.125 25.775C18.3417 24.9917 17.95 24.05 17.95 22.95C17.95 21.85 18.3417 20.9083 19.125 20.125C19.9083 19.3417 20.85 18.95 21.95 18.95C23.05 18.95 23.9917 19.3417 24.775 20.125C25.5583 20.9083 25.95 21.85 25.95 22.95C25.95 24.05 25.5583 24.9917 24.775 25.775C23.9917 26.5583 23.05 26.95 21.95 26.95Z" fill="white"/>
</svg>
